<svg width="50" height="50" viewBox="0 0 50 50" fill="none" xmlns="http://www.w3.org/2000/svg">
<path d="M16.8229 41.6667C16.441 41.6667 16.0851 41.5712 15.7552 41.3802C15.4253 41.1893 15.1736 40.9202 15 40.573L10.9375 33.3334H13.9583L16.0417 37.5H20.8333V35.4167H17.2917L15.2083 31.25H9.79167L6.82292 26.0417C6.75347 25.8681 6.69271 25.6945 6.64062 25.5209C6.58854 25.3473 6.5625 25.1737 6.5625 25C6.5625 24.8612 6.64931 24.5139 6.82292 23.9584L9.79167 18.75H15.2083L17.2917 14.5834H20.8333V12.5H16.0417L13.9583 16.6667H10.9375L15 9.42712C15.1736 9.0799 15.4253 8.8108 15.7552 8.61983C16.0851 8.42886 16.441 8.33337 16.8229 8.33337H21.875C22.4653 8.33337 22.9601 8.53303 23.3594 8.93233C23.7587 9.33164 23.9583 9.82643 23.9583 10.4167V18.75H20.8333L18.75 20.8334H23.9583V27.0834H19.375L17.2917 22.9167H12.5L10.4167 25H16.0417L18.125 29.1667H23.9583V39.5834C23.9583 40.1737 23.7587 40.6684 23.3594 41.0677C22.9601 41.4671 22.4653 41.6667 21.875 41.6667H16.8229ZM28.125 41.6667C27.5347 41.6667 27.0399 41.4671 26.6406 41.0677C26.2413 40.6684 26.0417 40.1737 26.0417 39.5834V29.1667H31.875L33.9583 25H39.5833L37.5 22.9167H32.7083L30.625 27.0834H26.0417V20.8334H31.25L29.1667 18.75H26.0417V10.4167C26.0417 9.82643 26.2413 9.33164 26.6406 8.93233C27.0399 8.53303 27.5347 8.33337 28.125 8.33337H33.1771C33.559 8.33337 33.9149 8.42886 34.2448 8.61983C34.5747 8.8108 34.8264 9.0799 35 9.42712L39.0625 16.6667H36.0417L33.9583 12.5H29.1667V14.5834H32.7083L34.7917 18.75H40.2083L43.1771 23.9584C43.2465 24.132 43.3073 24.3056 43.3594 24.4792C43.4115 24.6528 43.4375 24.8264 43.4375 25C43.4375 25.1389 43.3507 25.4862 43.1771 26.0417L40.2083 31.25H34.7917L32.7083 35.4167H29.1667V37.5H33.9583L36.0417 33.3334H39.0625L35 40.573C34.8264 40.9202 34.5747 41.1893 34.2448 41.3802C33.9149 41.5712 33.559 41.6667 33.1771 41.6667H28.125Z" fill="white"/>
</svg>
