<svg width="80" height="80" viewBox="0 0 80 80" fill="none" xmlns="http://www.w3.org/2000/svg">
<path d="M12.2883 19.0717C12.155 15.2201 15.1567 11.6667 19.215 11.6667H60.7917C64.85 11.6667 67.8517 15.2201 67.7167 19.0717C67.5883 22.7734 67.755 27.5667 68.9617 31.4767C70.1717 35.3984 72.2133 37.8767 75.5567 38.1951V41.8067C72.2133 42.1251 70.1733 44.6034 68.9617 48.5251C67.755 52.4334 67.5883 57.2284 67.7167 60.9301C67.85 64.7801 64.8483 68.3334 60.7917 68.3334H19.215C15.1583 68.3334 12.155 64.7801 12.29 60.9284C12.4183 57.2267 12.2517 52.4334 11.045 48.5234C9.83501 44.6017 7.78834 42.1234 4.44501 41.8051V38.1934C7.78834 37.8751 9.83334 35.3967 11.045 31.4751C12.25 27.5667 12.4183 22.7734 12.2883 19.0717Z" fill="#7C4DFF"/>
<path d="M45.1216 39.1066V39.06C48.21 38.5266 50.62 35.6316 50.62 32.4433C50.62 30.19 49.7533 28.28 48.1133 26.9233C46.4783 25.57 44.185 24.855 41.4783 24.855H29.0833V55.1333H41.5416C44.7783 55.1333 47.4666 54.3433 49.3133 52.8466C51.1616 51.3483 52.14 49.1683 52.14 46.5416C52.1383 42.5733 49.3216 39.5933 45.1216 39.1066ZM39.3166 37.68H34.015V28.8166H40.3216C43.7816 28.8166 45.6866 30.335 45.6866 33.0916C45.6883 36.05 43.425 37.68 39.3166 37.68ZM34.015 41.39H40.28C44.8066 41.39 47.1 43.025 47.1 46.25C47.1 49.47 44.8383 51.1716 40.5583 51.1716H34.015V41.39Z" fill="white"/>
</svg>
