<svg width="80" height="80" viewBox="0 0 80 80" fill="none" xmlns="http://www.w3.org/2000/svg">
<path d="M68.3334 8.33325H11.6667L16.6667 64.9999L40 71.6666L63.3334 64.9999L68.3334 8.33325Z" fill="#0277BD"/>
<path d="M40 13.3333V66.4999L58.6667 61.1666L62.8333 13.3333H40Z" fill="#039BE5"/>
<path d="M55.1667 21.6667H40V28.3334H48.1667L47.6667 35.0001H40V41.6667H47.3333L46.8333 49.1667L40 51.5001V58.5001L53.1667 54.1667L54.3333 35.0001L55.1667 21.6667Z" fill="white"/>
<path d="M40 21.6667V28.3334H25.1667L24.6667 21.6667H40ZM32.3334 35.0001L32.6667 41.6667H40V35.0001H32.3334ZM33 45.0001H26.3334L26.8334 54.1667L40 58.5001V51.5001L33.1667 49.1667L33 45.0001Z" fill="#EEEEEE"/>
</svg>
