<svg width="50" height="50" viewBox="0 0 50 50" fill="none" xmlns="http://www.w3.org/2000/svg">
<path d="M31.25 45.8332V37.4998C31.5398 34.89 30.7915 32.2709 29.1666 30.2082C35.4166 30.2082 41.6666 26.0415 41.6666 18.7498C41.8333 16.1457 41.1041 13.5832 39.5833 11.4582C40.1666 9.06234 40.1666 6.56234 39.5833 4.1665C39.5833 4.1665 37.5 4.1665 33.3333 7.2915C27.8333 6.24984 22.1666 6.24984 16.6666 7.2915C12.5 4.1665 10.4166 4.1665 10.4166 4.1665C9.79164 6.56234 9.79164 9.06234 10.4166 11.4582C8.89971 13.5746 8.16346 16.1515 8.33331 18.7498C8.33331 26.0415 14.5833 30.2082 20.8333 30.2082C20.0208 31.229 19.4166 32.3957 19.0625 33.6457C18.7083 34.8957 18.6041 36.2082 18.75 37.4998V45.8332" stroke="white" stroke-width="2" stroke-linecap="round" stroke-linejoin="round"/>
<path d="M18.75 37.5002C9.35413 41.6668 8.33329 33.3335 4.16663 33.3335" stroke="white" stroke-width="2" stroke-linecap="round" stroke-linejoin="round"/>
</svg>
