<svg width="80" height="80" viewBox="0 0 80 80" fill="none" xmlns="http://www.w3.org/2000/svg">
<path d="M68.3333 8.33325H11.6667L16.6667 64.9999L40 71.6666L63.3333 64.9999L68.3333 8.33325Z" fill="#E65100"/>
<path d="M40 13.3333V66.4999L58.6667 61.1666L62.8333 13.3333H40Z" fill="#FF6D00"/>
<path d="M40 41.6667V35.0001H54.3333L53.1667 54.1667L40 58.5001V51.5001L46.8333 49.1667L47.3333 41.6667H40ZM54.8333 28.3334L55.3333 21.6667H40V28.3334H54.8333Z" fill="white"/>
<path d="M40 51.5001V58.5001L26.8333 54.1667L26.1667 45.0001H32.8333L33.1667 49.1667L40 51.5001ZM31.8333 28.3334H40V21.6667H24.8333L26 41.6667H40V35.0001H32.3333L31.8333 28.3334Z" fill="#EEEEEE"/>
</svg>
