<svg width="80" height="80" viewBox="0 0 80 80" fill="none" xmlns="http://www.w3.org/2000/svg">
<path d="M10 70V10H70V70H10Z" fill="#FFD600"/>
<path d="M49.23 54.9117C50.3833 56.7851 51.6367 58.5801 54.2917 58.5801C56.5217 58.5801 57.6917 57.4717 57.6917 55.9384C57.6917 54.1034 56.4817 53.4517 54.0283 52.3834L52.6833 51.8101C48.8017 50.1634 46.22 48.1001 46.22 43.7417C46.22 39.7251 49.295 36.6684 54.1 36.6684C57.5217 36.6684 59.98 37.8534 61.7533 40.9567L57.5633 43.6351C56.6417 41.9884 55.645 41.3401 54.1 41.3401C52.5233 41.3401 51.525 42.3351 51.525 43.6351C51.525 45.2417 52.525 45.8917 54.8333 46.8867L56.1783 47.4601C60.7533 49.4084 63.3333 51.3984 63.3333 55.8717C63.3333 60.6917 59.5267 63.3334 54.4167 63.3334C49.4183 63.3334 46.58 60.8251 45 57.7201L49.23 54.9117ZM29.92 55.0484C30.7633 56.5584 32.045 57.7201 33.8883 57.7201C35.6517 57.7201 36.6667 57.0234 36.6667 54.3151V36.6667H42.2217V55.1684C42.2217 60.7801 38.9667 63.3334 34.2133 63.3334C29.9183 63.3334 26.8183 60.4234 25.555 57.7201L29.92 55.0484Z" fill="#000001"/>
</svg>
