<svg width="50" height="50" viewBox="0 0 50 50" fill="none" xmlns="http://www.w3.org/2000/svg">
<path d="M33.3334 16.6665C36.6486 16.6665 39.828 17.9835 42.1722 20.3277C44.5164 22.6719 45.8334 25.8513 45.8334 29.1665V43.7498H37.5V29.1665C37.5 28.0614 37.0611 27.0016 36.2797 26.2202C35.4982 25.4388 34.4384 24.9998 33.3334 24.9998C32.2283 24.9998 31.1685 25.4388 30.3871 26.2202C29.6057 27.0016 29.1667 28.0614 29.1667 29.1665V43.7498H20.8334V29.1665C20.8334 25.8513 22.1503 22.6719 24.4945 20.3277C26.8387 17.9835 30.0182 16.6665 33.3334 16.6665Z" stroke="white" stroke-width="2" stroke-linecap="round" stroke-linejoin="round"/>
<path d="M12.5 18.75H4.16663V43.75H12.5V18.75Z" stroke="white" stroke-width="2" stroke-linecap="round" stroke-linejoin="round"/>
<path d="M8.33329 12.4998C10.6345 12.4998 12.5 10.6344 12.5 8.33317C12.5 6.03198 10.6345 4.1665 8.33329 4.1665C6.03211 4.1665 4.16663 6.03198 4.16663 8.33317C4.16663 10.6344 6.03211 12.4998 8.33329 12.4998Z" stroke="white" stroke-width="2" stroke-linecap="round" stroke-linejoin="round"/>
</svg>
