<svg width="80" height="80" viewBox="0 0 80 80" fill="none" xmlns="http://www.w3.org/2000/svg">
<path d="M46.5 40C46.5 43.593 43.593 46.5 40 46.5C36.407 46.5 33.5 43.593 33.5 40C33.5 36.407 36.407 33.5 40 33.5C43.593 33.5 46.5 36.407 46.5 40Z" fill="#8BB7F0"/>
<path d="M40 47C36.141 47 33 43.86 33 40C33 36.14 36.141 33 40 33C43.859 33 47 36.14 47 40C47 43.86 43.859 47 40 47ZM40 34C36.691 34 34 36.691 34 40C34 43.309 36.691 46 40 46C43.309 46 46 43.309 46 40C46 36.691 43.309 34 40 34Z" fill="#4E7AB5"/>
<path d="M24.474 75.5028C22.763 75.5028 21.205 75.1108 19.842 74.3388C17.562 73.0458 15.986 70.8178 15.156 67.7188C14.191 64.1118 14.306 59.3208 15.488 53.8408C5.956 50.5618 0.5 45.5308 0.5 39.9998C0.5 34.4678 5.955 29.4378 15.487 26.1598C14.305 20.6788 14.189 15.8878 15.154 12.2808C15.984 9.18083 17.56 6.95283 19.839 5.66083C21.201 4.88883 22.76 4.49683 24.471 4.49683C28.859 4.49683 34.362 7.22683 40.002 12.1948C45.642 7.23183 51.143 4.50383 55.526 4.50383C57.237 4.50383 58.795 4.89583 60.158 5.66783C62.435 6.95883 64.012 9.18283 64.842 12.2788C65.808 15.8848 65.692 20.6768 64.509 26.1588C74.043 29.4368 79.5 34.4678 79.5 39.9998C79.5 45.5318 74.043 50.5628 64.509 53.8418C65.691 59.3228 65.807 64.1138 64.841 67.7198C64.011 70.8168 62.436 73.0408 60.161 74.3318C58.797 75.1038 57.238 75.4958 55.528 75.4958C51.142 75.4958 45.639 72.7678 40.001 67.8068C34.361 72.7738 28.859 75.5028 24.474 75.5028ZM19.337 55.0058C18.346 59.7228 18.235 63.7528 19.021 66.6848C19.563 68.7108 20.502 70.1158 21.815 70.8598C22.568 71.2868 23.463 71.5038 24.474 71.5038C27.868 71.5038 32.336 69.2218 37.095 65.0668C34.71 62.6648 32.382 59.9458 30.167 56.9758C26.336 56.5598 22.696 55.8978 19.337 55.0058ZM42.906 65.0648C47.664 69.2158 52.133 71.4958 55.527 71.4968C56.538 71.4968 57.433 71.2798 58.188 70.8528C59.497 70.1108 60.434 68.7088 60.975 66.6858C61.761 63.7518 61.651 59.7228 60.66 55.0068C57.298 55.8988 53.657 56.5608 49.827 56.9768C47.613 59.9468 45.288 62.6648 42.906 65.0648ZM35.566 57.3928C37.018 59.1688 38.504 60.8258 40 62.3328C41.492 60.8268 42.979 59.1698 44.43 57.3928C42.939 57.4638 41.454 57.4998 40 57.4998C38.545 57.4998 37.059 57.4638 35.566 57.3928ZM32.349 53.1788C34.844 53.3918 37.417 53.4998 40 53.4998C42.585 53.4998 45.155 53.3918 47.646 53.1798C49.132 51.0958 50.549 48.9118 51.86 46.6848C53.128 44.5298 54.321 42.2808 55.407 39.9988C54.324 37.7228 53.132 35.4748 51.861 33.3148C50.553 31.0928 49.136 28.9088 47.646 26.8198C45.157 26.6078 42.587 26.4998 40 26.4998C37.412 26.4998 34.841 26.6078 32.353 26.8208C30.863 28.9068 29.444 31.0908 28.134 33.3158C26.864 35.4748 25.672 37.7228 24.588 40.0018C25.67 42.2758 26.862 44.5238 28.133 46.6858C29.437 48.9008 30.854 51.0838 32.349 53.1788ZM57.491 44.7788C56.785 46.1248 56.053 47.4448 55.306 48.7128C54.553 49.9948 53.752 51.2808 52.92 52.5488C55.294 52.1828 57.565 51.7138 59.691 51.1488C59.101 49.0998 58.362 46.9628 57.491 44.7788ZM20.304 51.1478C22.431 51.7118 24.701 52.1818 27.072 52.5478C26.235 51.2718 25.434 49.9848 24.686 48.7128C23.941 47.4458 23.208 46.1278 22.503 44.7818C21.636 46.9558 20.898 49.0908 20.304 51.1478ZM59.816 39.9998C61.344 43.3908 62.589 46.7428 63.524 49.9768C70.926 47.3728 75.5 43.5738 75.5 39.9998C75.5 36.4258 70.926 32.6268 63.524 30.0228C62.591 33.2568 61.345 36.6088 59.816 39.9998ZM16.472 30.0248C9.073 32.6278 4.5 36.4268 4.5 39.9998C4.5 43.5738 9.073 47.3728 16.474 49.9758C17.408 46.7408 18.653 43.3888 20.179 40.0018C18.652 36.6138 17.407 33.2618 16.472 30.0248ZM20.303 28.8518C20.897 30.9058 21.635 33.0418 22.503 35.2198C23.207 33.8778 23.939 32.5588 24.687 31.2878C25.439 30.0088 26.24 28.7228 27.075 27.4518C24.701 27.8168 22.431 28.2868 20.303 28.8518ZM52.922 27.4508C53.759 28.7278 54.56 30.0138 55.308 31.2878C56.054 32.5548 56.787 33.8738 57.493 35.2198C58.362 33.0428 59.1 30.9068 59.694 28.8508C57.564 28.2858 55.294 27.8158 52.922 27.4508ZM24.471 8.49683C23.46 8.49683 22.566 8.71283 21.814 9.14083C20.502 9.88483 19.562 11.2898 19.019 13.3158C18.234 16.2508 18.344 20.2798 19.336 24.9948C22.696 24.1028 26.338 23.4398 30.17 23.0238C32.387 20.0528 34.715 17.3358 37.097 14.9358C32.337 10.7788 27.866 8.49683 24.471 8.49683ZM49.828 23.0228C53.658 23.4388 57.299 24.1008 60.661 24.9928C61.653 20.2768 61.764 16.2468 60.977 13.3128C60.435 11.2908 59.497 9.88883 58.187 9.14683C57.433 8.71983 56.538 8.50283 55.526 8.50283C52.133 8.50283 47.666 10.7838 42.907 14.9358C45.287 17.3348 47.613 20.0528 49.828 23.0228ZM40 22.4998C41.454 22.4998 42.939 22.5358 44.431 22.6068C42.981 20.8328 41.495 19.1768 40.002 17.6688C38.505 19.1788 37.02 20.8348 35.57 22.6068C37.061 22.5358 38.546 22.4998 40 22.4998Z" fill="#8BB7F0"/>
<path d="M24.471 4.99693C28.965 4.99693 34.467 7.90693 40.003 12.8639C45.538 7.91093 51.037 5.00393 55.527 5.00393C57.15 5.00393 58.626 5.37393 59.913 6.10293C62.069 7.32493 63.565 9.44593 64.359 12.4089C65.436 16.3259 65.21 21.1489 63.925 26.4889C73.147 29.5699 79 34.4309 79 39.9999C79 45.5689 73.147 50.4299 63.924 53.5119C65.265 59.2849 65.49 64.2379 64.358 67.5909C63.564 70.5529 62.069 72.6749 59.915 73.8969C58.626 74.6269 57.455 74.9999 55.833 74.9999C55.832 74.9999 55.417 74.9999 55.416 74.9999C50.924 74.9999 45.534 72.0899 40 67.1389C34.465 72.0949 28.965 75.0029 24.473 75.0029C22.85 75.0029 21.374 74.6329 20.087 73.9039C17.929 72.6789 16.432 70.5549 15.639 67.5899C14.449 63.8729 14.689 58.9869 16.073 53.5109C6.852 50.4289 1 45.5689 1 39.9999C1 34.4319 6.852 29.5709 16.072 26.4889C15.385 23.4299 14.946 20.5899 14.931 17.9999C14.919 15.9539 15.198 14.0509 15.638 12.4099C16.432 9.44393 17.928 7.31993 20.086 6.09593C21.372 5.36593 22.848 4.99693 24.471 4.99693ZM18.958 25.6139C22.435 24.6589 26.296 23.9369 30.441 23.4969C32.823 20.2869 35.316 17.4009 37.827 14.9129C32.955 10.5669 28.211 7.99593 24.471 7.99593C23.372 7.99593 22.396 8.23393 21.567 8.70493C20.134 9.51793 19.115 11.0249 18.536 13.1859C17.678 16.3879 17.873 20.7159 18.958 25.6139ZM61.039 25.6129C62.124 20.7149 62.319 16.3859 61.461 13.1839C60.883 11.0269 59.864 9.52293 58.434 8.71193C57.604 8.24093 56.625 8.00293 55.527 8.00293C51.79 8.00293 47.049 10.5709 42.178 14.9129C44.688 17.4009 47.178 20.2869 49.558 23.4959C53.701 23.9359 57.562 24.6579 61.039 25.6129ZM34.477 23.1659C36.279 23.0589 38.086 22.9659 39.965 22.9659C41.844 22.9659 43.72 23.0599 45.522 23.1659C43.714 20.8869 41.858 18.8049 40.001 16.9619C38.144 18.8049 36.287 20.8869 34.477 23.1659ZM40 53.9999C42.761 53.9999 45.404 53.8789 47.918 53.6579C49.437 51.5409 50.906 49.2929 52.29 46.9389C53.643 44.6399 54.867 42.3129 55.96 39.9999C54.867 37.6869 53.643 35.3609 52.291 33.0629C50.906 30.7079 49.438 28.4609 47.918 26.3439C45.405 26.1209 42.762 25.9999 40 25.9999C37.238 25.9999 34.594 26.1209 32.08 26.3429C30.559 28.4599 29.089 30.7079 27.704 33.0619C26.352 35.3609 25.128 37.6879 24.035 40.0009C25.128 42.3139 26.351 44.6399 27.703 46.9379C29.088 49.2919 30.557 51.5399 32.077 53.6569C34.592 53.8789 37.237 53.9999 40 53.9999ZM57.546 36.4129C58.671 33.7039 59.602 31.0439 60.312 28.4999C57.759 27.7979 54.939 27.2179 51.884 26.7929C52.912 28.3199 53.913 29.9029 54.876 31.5409C55.83 33.1599 56.717 34.7879 57.546 36.4129ZM22.449 36.4139C23.277 34.7889 24.165 33.1609 25.117 31.5409C26.081 29.9029 27.083 28.3209 28.112 26.7939C25.057 27.2179 22.237 27.7989 19.684 28.5009C20.394 31.0449 21.325 33.7039 22.449 36.4139ZM63.188 50.6219C71.264 47.8859 76 43.8659 76 39.9999C76 36.1339 71.264 32.1139 63.188 29.3779C62.235 32.7829 60.919 36.3609 59.268 39.9989C60.919 43.6379 62.235 47.2159 63.188 50.6219ZM16.81 50.6209C17.762 47.2169 19.077 43.6389 20.728 40.0019C19.077 36.3639 17.761 32.7849 16.809 29.3799C8.734 32.1159 4 36.1349 4 39.9999C4 43.8659 8.735 47.8849 16.81 50.6209ZM51.884 53.2069C54.939 52.7829 57.759 52.2029 60.312 51.4999C59.601 48.9559 58.67 46.2959 57.546 43.5859C56.717 45.2109 55.829 46.8389 54.876 48.4589C53.913 50.0969 52.912 51.6799 51.884 53.2069ZM28.109 53.2059C27.081 51.6789 26.08 50.0969 25.116 48.4599C24.164 46.8409 23.277 45.2139 22.449 43.5899C21.325 46.2979 20.395 48.9569 19.685 51.4999C22.237 52.2009 25.056 52.7809 28.109 53.2059ZM24.474 72.0029C28.213 72.0029 32.955 69.4329 37.826 65.0889C35.313 62.5999 32.821 59.7129 30.438 56.5019C26.295 56.0629 22.436 55.3409 18.96 54.3859C17.876 59.2839 17.681 63.6119 18.538 66.8139C19.116 68.9739 20.136 70.4809 21.568 71.2939C22.396 71.7649 23.375 72.0029 24.474 72.0029ZM55.527 71.9969C56.626 71.9969 57.603 71.7589 58.434 71.2879C59.864 70.4769 60.881 68.9729 61.458 66.8149C62.316 63.6119 62.121 59.2839 61.037 54.3869C57.56 55.3419 53.7 56.0639 49.556 56.5029C47.176 59.7129 44.685 62.5989 42.175 65.0879C47.046 69.4279 51.788 71.9959 55.527 71.9969ZM40 63.0399C41.857 61.1959 43.713 59.1129 45.522 56.8339C43.721 56.9409 41.963 57.1669 40.083 57.1669C38.202 57.1669 36.276 56.9409 34.474 56.8339C36.284 59.1139 38.142 61.1969 40 63.0399ZM24.116 4.07193C22.317 4.07193 21.031 4.40993 19.593 5.22493C17.194 6.58593 15.538 8.91593 14.672 12.1509C13.712 15.7379 13.795 20.4529 14.908 25.8319C5.419 29.1889 0 34.3249 0 39.9999C0 45.6759 5.42 50.8109 14.909 54.1679C13.796 59.5469 13.713 64.2619 14.674 67.8489C15.539 71.0819 17.194 73.4119 19.595 74.7749C21.035 75.5909 22.765 75.9379 24.563 75.9379C29.05 75.9379 34.316 73.4029 40.001 68.4719C45.685 73.3979 51.04 75.9959 55.526 75.9969C57.325 75.9969 58.967 75.5839 60.407 74.7679C62.804 73.4089 64.458 71.0819 65.323 67.8509C66.284 64.2629 66.201 59.5479 65.088 54.1699C74.579 50.8119 80 45.6759 80 39.9999C80 34.3239 74.58 29.1879 65.089 25.8309C66.203 20.4509 66.285 15.7359 65.324 12.1489C64.458 8.91793 62.803 6.59093 60.405 5.23193C58.966 4.41693 57.324 4.00293 55.526 4.00293C51.041 4.00293 45.687 6.60193 40.002 11.5299C34.316 6.59793 28.936 4.06893 24.448 4.06893L24.116 4.07193ZM19.72 24.3769C19.258 22.0529 18.948 19.8749 18.931 17.9649C18.916 16.2449 19.152 14.7479 19.501 13.4439C20.008 11.5519 20.869 10.2499 22.06 9.57393C22.736 9.18993 23.56 8.92993 24.483 8.92993C27.664 8.92993 31.85 11.1079 36.366 14.9639C34.145 17.2369 31.974 19.7829 29.9 22.5489C26.315 22.9489 22.897 23.5619 19.72 24.3769ZM43.638 14.9659C48.153 11.1129 52.349 9.00293 55.526 9.00293C56.45 9.00293 57.263 9.19793 57.94 9.58193C59.129 10.2559 59.989 11.5549 60.495 13.4429C61.369 16.2609 61.256 20.0069 60.277 24.3759C57.1 23.5619 53.683 22.9479 50.099 22.5499C48.026 19.7849 45.857 17.2389 43.638 14.9659ZM36.673 22.0599C37.769 20.7599 38.882 19.5299 40.001 18.3819C41.12 19.5299 42.232 20.7599 43.327 22.0599C42.208 22.0199 41.095 21.9999 40 21.9999C38.905 21.9999 37.793 22.0199 36.673 22.0599ZM32.625 27.2999C35.03 27.1009 37.508 26.9589 40 26.9589C42.491 26.9589 44.969 27.1009 47.373 27.2999C48.805 29.3189 50.169 31.4259 51.429 33.5689C52.651 35.6469 53.802 37.8079 54.852 39.9989C53.801 42.1909 52.65 44.3529 51.428 46.4309C50.167 48.5749 48.804 50.6809 47.372 52.6999C44.969 52.8989 42.491 53.1659 40 53.1659C37.507 53.1659 35.028 52.8979 32.622 52.6989C31.189 50.6809 29.825 48.5739 28.564 46.4299C27.342 44.3529 26.192 42.1919 25.142 39.9999C26.192 37.8079 27.343 35.6459 28.565 33.5679C29.827 31.4249 31.192 29.3179 32.625 27.2999ZM57.422 34.0239C56.873 33.0059 56.31 32.0059 55.739 31.0339C55.169 30.0649 54.572 29.0919 53.954 28.1249C55.728 28.4269 57.439 28.7879 59.068 29.2049C58.601 30.7709 58.05 32.3829 57.422 34.0239ZM20.928 29.2049C22.557 28.7879 24.268 28.4269 26.042 28.1249C25.423 29.0919 24.826 30.0649 24.256 31.0329C23.685 32.0049 23.122 33.0049 22.573 34.0229C21.945 32.3839 21.395 30.7719 20.928 29.2049ZM60.365 39.9989C61.78 36.8369 62.952 33.7069 63.855 30.6729C70.758 33.1919 75 36.7209 75 39.9999C75 43.2789 70.758 46.8079 63.855 49.3269C62.951 46.2919 61.78 43.1609 60.365 39.9989ZM16.142 49.3259C9.241 46.8069 5 43.2779 5 39.9999C5 36.7219 9.241 33.1929 16.141 30.6739C17.044 33.7089 18.215 36.8389 19.63 40.0009C18.216 43.1619 17.045 46.2919 16.142 49.3259ZM53.953 51.8759C54.571 50.9079 55.169 49.9349 55.738 48.9669C56.31 47.9949 56.873 46.9939 57.422 45.9759C58.05 47.6169 58.6 49.2299 59.068 50.7969C57.438 51.2119 55.727 51.5739 53.953 51.8759ZM20.929 50.7949C21.396 49.2289 21.946 47.6179 22.573 45.9789C23.121 46.9959 23.684 47.9959 24.255 48.9669C24.824 49.9349 25.421 50.9069 26.04 51.8749C24.267 51.5719 22.557 51.2109 20.929 50.7949ZM24.474 71.0029C23.55 71.0029 22.738 70.8079 22.061 70.4239C20.871 69.7479 20.01 68.4469 19.504 66.5549C18.673 63.7099 18.767 59.9629 19.722 55.6219C22.898 56.4359 26.314 57.0499 29.897 57.4479C31.972 60.2139 34.143 62.7609 36.365 65.0359C31.85 68.8929 27.653 71.0039 24.474 71.0029ZM50.098 57.4499C53.682 57.0509 57.099 56.4379 60.276 55.6239C61.381 60.3639 61.468 64.1419 60.493 66.5559C59.988 68.4449 59.129 69.7439 57.941 70.4169C57.263 70.8009 56.451 70.9959 55.528 70.9959C52.348 70.9959 48.15 68.8859 43.636 65.0349C45.856 62.7619 48.025 60.2159 50.098 57.4499ZM40 61.6199C38.88 60.4719 37.766 59.2409 36.67 57.9399C37.79 57.9799 38.904 57.9999 40 57.9999C41.095 57.9999 42.208 57.9799 43.327 57.9399C42.232 59.2409 41.119 60.4719 40 61.6199Z" fill="#4E7AB5"/>
</svg>
