<svg width="80" height="80" viewBox="0 0 80 80" fill="none" xmlns="http://www.w3.org/2000/svg">
<path d="M40 16.0066C29.3333 16.0066 22.6667 21.3383 20 32.0016C24 26.6699 28.6667 24.6716 34 26.0033C37.0433 26.7633 39.2183 28.9716 41.6267 31.4149C45.5467 35.3933 50.085 39.9999 60 39.9999C70.6667 39.9999 77.3333 34.6683 80 24.0033C76 29.3349 71.3333 31.3349 66 30.0033C62.9583 29.2433 60.7833 27.0349 58.375 24.5916C54.4533 20.6116 49.9133 16.0066 40 16.0066ZM20 39.9999C9.33333 39.9999 2.66667 45.3316 0 55.9966C4 50.6649 8.66667 48.6649 14 49.9983C17.0417 50.7599 19.2167 52.9666 21.625 55.4083C25.5467 59.3883 30.0867 63.9949 40 63.9949C50.6667 63.9949 57.3333 58.6633 60 47.9983C56 53.3299 51.3333 55.3299 46 53.9966C42.9567 53.2366 40.7817 51.0283 38.3733 48.5866C34.4533 44.6066 29.915 39.9999 20 39.9999Z" fill="#00ACC1"/>
</svg>
